<mxfile host="app.diagrams.net" agent="Mozilla/5.0 (Windows NT 10.0; Win64; x64) AppleWebKit/537.36 (KHTML, like Gecko) Chrome/137.0.0.0 Safari/537.36" version="27.1.5">
  <diagram name="Page-1" id="30IPoQUe5PhMuz9bBw74">
    <mxGraphModel dx="715" dy="377" grid="1" gridSize="10" guides="1" tooltips="1" connect="1" arrows="1" fold="1" page="1" pageScale="1" pageWidth="1169" pageHeight="827" math="0" shadow="0">
      <root>
        <mxCell id="0" />
        <mxCell id="1" parent="0" />
        <mxCell id="gJbRsyjgmgIFXHLUVnTs-1" value="Blk B U204 R001" style="swimlane;whiteSpace=wrap;html=1;fontSize=8;" vertex="1" parent="1">
          <mxGeometry x="130" y="110" width="260" height="330" as="geometry" />
        </mxCell>
        <mxCell id="gJbRsyjgmgIFXHLUVnTs-3" value="Windows 2012 Collector&lt;br&gt;10.0.35.213&lt;div&gt;&lt;br&gt;Dell R220 G1BHG62&lt;/div&gt;" style="sketch=0;pointerEvents=1;shadow=0;dashed=0;html=1;strokeColor=none;fillColor=#005F4B;labelPosition=center;verticalLabelPosition=bottom;verticalAlign=top;align=center;outlineConnect=0;shape=mxgraph.veeam2.1u_server;fontSize=8;" vertex="1" parent="gJbRsyjgmgIFXHLUVnTs-1">
          <mxGeometry x="40" y="50" width="80" height="22" as="geometry" />
        </mxCell>
        <mxCell id="gJbRsyjgmgIFXHLUVnTs-4" value="Linux Hypervisor&lt;br&gt;10.0.35.202&lt;div&gt;&lt;br&gt;Dell R330 BXJZ6P2&lt;/div&gt;" style="sketch=0;pointerEvents=1;shadow=0;dashed=0;html=1;strokeColor=none;fillColor=#005F4B;labelPosition=center;verticalLabelPosition=bottom;verticalAlign=top;align=center;outlineConnect=0;shape=mxgraph.veeam2.1u_server;fontSize=8;" vertex="1" parent="gJbRsyjgmgIFXHLUVnTs-1">
          <mxGeometry x="40" y="170" width="80" height="22" as="geometry" />
        </mxCell>
        <mxCell id="gJbRsyjgmgIFXHLUVnTs-7" value="License Key" style="sketch=0;pointerEvents=1;shadow=0;dashed=0;html=1;strokeColor=none;fillColor=#005F4B;labelPosition=center;verticalLabelPosition=bottom;verticalAlign=top;align=center;outlineConnect=0;shape=mxgraph.veeam2.usb_drive;" vertex="1" parent="gJbRsyjgmgIFXHLUVnTs-1">
          <mxGeometry x="170" y="110" width="40" height="17" as="geometry" />
        </mxCell>
        <mxCell id="gJbRsyjgmgIFXHLUVnTs-25" value="Linux Hypervisor&lt;br&gt;10.0.35.203&lt;div&gt;&lt;br&gt;Dell R330 BXK07P2&lt;/div&gt;" style="sketch=0;pointerEvents=1;shadow=0;dashed=0;html=1;strokeColor=none;fillColor=#005F4B;labelPosition=center;verticalLabelPosition=bottom;verticalAlign=top;align=center;outlineConnect=0;shape=mxgraph.veeam2.1u_server;fontSize=8;" vertex="1" parent="gJbRsyjgmgIFXHLUVnTs-1">
          <mxGeometry x="40" y="250" width="80" height="22" as="geometry" />
        </mxCell>
        <mxCell id="gJbRsyjgmgIFXHLUVnTs-26" value="&lt;font style=&quot;font-size: 8px;&quot;&gt;BMS Server&lt;br&gt;Windows 2012&lt;br&gt;&lt;/font&gt;&lt;div&gt;&lt;font style=&quot;font-size: 8px;&quot;&gt;10.0.35.204&lt;/font&gt;&lt;/div&gt;" style="sketch=0;pointerEvents=1;shadow=0;dashed=0;html=1;strokeColor=none;fillColor=#005F4B;labelPosition=center;verticalLabelPosition=bottom;verticalAlign=top;align=center;outlineConnect=0;shape=mxgraph.veeam2.virtual_machine;" vertex="1" parent="gJbRsyjgmgIFXHLUVnTs-1">
          <mxGeometry x="182" y="192" width="28.000000000000004" height="28.000000000000004" as="geometry" />
        </mxCell>
        <mxCell id="gJbRsyjgmgIFXHLUVnTs-9" value="" style="sketch=0;pointerEvents=1;shadow=0;dashed=0;html=1;strokeColor=none;fillColor=#005F4B;labelPosition=center;verticalLabelPosition=bottom;verticalAlign=top;align=center;outlineConnect=0;shape=mxgraph.veeam2.workstation;" vertex="1" parent="1">
          <mxGeometry x="180" y="630" width="58" height="40" as="geometry" />
        </mxCell>
        <mxCell id="gJbRsyjgmgIFXHLUVnTs-10" value="" style="sketch=0;pointerEvents=1;shadow=0;dashed=0;html=1;strokeColor=none;fillColor=#005F4B;labelPosition=center;verticalLabelPosition=bottom;verticalAlign=top;align=center;outlineConnect=0;shape=mxgraph.veeam2.workstation;" vertex="1" parent="1">
          <mxGeometry x="252.5" y="630" width="58" height="40" as="geometry" />
        </mxCell>
        <mxCell id="gJbRsyjgmgIFXHLUVnTs-11" value="" style="sketch=0;pointerEvents=1;shadow=0;dashed=0;html=1;strokeColor=none;fillColor=#005F4B;labelPosition=center;verticalLabelPosition=bottom;verticalAlign=top;align=center;outlineConnect=0;shape=mxgraph.veeam2.workstation;" vertex="1" parent="1">
          <mxGeometry x="330" y="630" width="58" height="40" as="geometry" />
        </mxCell>
        <mxCell id="gJbRsyjgmgIFXHLUVnTs-12" value="" style="endArrow=none;html=1;rounded=0;fillColor=#ffe6cc;strokeColor=#d79b00;" edge="1" parent="1" source="gJbRsyjgmgIFXHLUVnTs-3">
          <mxGeometry width="50" height="50" relative="1" as="geometry">
            <mxPoint x="250" y="170" as="sourcePoint" />
            <mxPoint x="280" y="440" as="targetPoint" />
            <Array as="points">
              <mxPoint x="280" y="170" />
            </Array>
          </mxGeometry>
        </mxCell>
        <mxCell id="gJbRsyjgmgIFXHLUVnTs-13" value="" style="endArrow=none;html=1;rounded=0;fillColor=#ffe6cc;strokeColor=#d79b00;" edge="1" parent="1" source="gJbRsyjgmgIFXHLUVnTs-4">
          <mxGeometry width="50" height="50" relative="1" as="geometry">
            <mxPoint x="400" y="350" as="sourcePoint" />
            <mxPoint x="280" y="440" as="targetPoint" />
            <Array as="points">
              <mxPoint x="280" y="291" />
            </Array>
          </mxGeometry>
        </mxCell>
        <mxCell id="gJbRsyjgmgIFXHLUVnTs-14" value="" style="endArrow=none;html=1;rounded=0;fillColor=#ffe6cc;strokeColor=#d79b00;" edge="1" parent="1">
          <mxGeometry width="50" height="50" relative="1" as="geometry">
            <mxPoint x="300" y="230" as="sourcePoint" />
            <mxPoint x="280" y="440" as="targetPoint" />
            <Array as="points">
              <mxPoint x="280" y="230" />
            </Array>
          </mxGeometry>
        </mxCell>
        <mxCell id="gJbRsyjgmgIFXHLUVnTs-17" value="" style="endArrow=none;html=1;rounded=0;fillColor=#ffe6cc;strokeColor=#d79b00;" edge="1" parent="1">
          <mxGeometry width="50" height="50" relative="1" as="geometry">
            <mxPoint x="280" y="580" as="sourcePoint" />
            <mxPoint x="210" y="630" as="targetPoint" />
            <Array as="points">
              <mxPoint x="210" y="580" />
            </Array>
          </mxGeometry>
        </mxCell>
        <mxCell id="gJbRsyjgmgIFXHLUVnTs-18" value="" style="endArrow=none;html=1;rounded=0;fillColor=#ffe6cc;strokeColor=#d79b00;" edge="1" parent="1">
          <mxGeometry width="50" height="50" relative="1" as="geometry">
            <mxPoint x="280" y="580" as="sourcePoint" />
            <mxPoint x="280" y="630" as="targetPoint" />
            <Array as="points" />
          </mxGeometry>
        </mxCell>
        <mxCell id="gJbRsyjgmgIFXHLUVnTs-19" value="" style="endArrow=none;html=1;rounded=0;fillColor=#ffe6cc;strokeColor=#d79b00;" edge="1" parent="1" target="gJbRsyjgmgIFXHLUVnTs-11">
          <mxGeometry width="50" height="50" relative="1" as="geometry">
            <mxPoint x="280" y="530" as="sourcePoint" />
            <mxPoint x="358" y="620" as="targetPoint" />
            <Array as="points">
              <mxPoint x="280" y="550" />
              <mxPoint x="280" y="580" />
              <mxPoint x="358" y="580" />
            </Array>
          </mxGeometry>
        </mxCell>
        <mxCell id="gJbRsyjgmgIFXHLUVnTs-16" value="VLAN035" style="sketch=0;pointerEvents=1;shadow=0;dashed=0;html=1;strokeColor=none;fillColor=#005F4B;labelPosition=center;verticalLabelPosition=bottom;verticalAlign=top;align=center;outlineConnect=0;shape=mxgraph.veeam2.physical_switch;" vertex="1" parent="1">
          <mxGeometry x="220" y="480" width="123" height="30" as="geometry" />
        </mxCell>
        <mxCell id="gJbRsyjgmgIFXHLUVnTs-27" value="" style="endArrow=none;html=1;rounded=0;fillColor=#ffe6cc;strokeColor=#d79b00;" edge="1" parent="1">
          <mxGeometry width="50" height="50" relative="1" as="geometry">
            <mxPoint x="310" y="320" as="sourcePoint" />
            <mxPoint x="280" y="480" as="targetPoint" />
            <Array as="points">
              <mxPoint x="280" y="320" />
            </Array>
          </mxGeometry>
        </mxCell>
        <mxCell id="gJbRsyjgmgIFXHLUVnTs-28" value="" style="endArrow=none;html=1;rounded=0;fillColor=#ffe6cc;strokeColor=#d79b00;" edge="1" parent="1">
          <mxGeometry width="50" height="50" relative="1" as="geometry">
            <mxPoint x="250" y="370" as="sourcePoint" />
            <mxPoint x="280" y="480" as="targetPoint" />
            <Array as="points">
              <mxPoint x="280" y="370" />
            </Array>
          </mxGeometry>
        </mxCell>
      </root>
    </mxGraphModel>
  </diagram>
</mxfile>
